<?xml version="1.0" standalone="no"?>
<!DOCTYPE svg PUBLIC "-//W3C//DTD SVG 20010904//EN"
 "http://www.w3.org/TR/2001/REC-SVG-20010904/DTD/svg10.dtd">
<svg version="1.0" xmlns="http://www.w3.org/2000/svg"
 width="512.000000pt" height="512.000000pt" viewBox="0 0 512.000000 512.000000"
 preserveAspectRatio="xMidYMid meet">

<g transform="translate(0.000000,512.000000) scale(0.100000,-0.100000)"
fill="#000000" stroke="none">
<path d="M2442 4949 c-253 -45 -473 -272 -513 -530 -9 -61 -8 -182 3 -229 2
-7 -94 -47 -227 -96 -126 -46 -253 -92 -281 -103 l-52 -19 -47 69 c-244 358
-773 370 -1033 24 -284 -379 -78 -917 388 -1011 116 -23 214 -14 361 33 13 3
51 -53 163 -242 l147 -246 -132 -205 c-73 -113 -135 -207 -139 -209 -4 -2 -42
8 -86 22 -68 23 -96 27 -199 27 -104 0 -130 -4 -193 -26 -104 -37 -176 -83
-252 -158 -75 -76 -121 -148 -158 -252 -23 -64 -26 -88 -26 -198 1 -108 4
-135 27 -198 67 -190 212 -340 392 -403 180 -63 381 -43 543 53 57 34 157 124
186 168 l16 25 303 -152 303 -151 -10 -67 c-30 -201 68 -440 231 -570 110 -88
270 -145 403 -145 133 0 293 57 403 145 140 111 237 313 237 495 0 83 -29 200
-70 283 l-38 78 420 439 c231 242 424 440 429 440 4 0 29 -13 56 -30 110 -69
271 -102 402 -83 154 23 264 77 371 183 106 107 160 217 183 371 19 132 -13
285 -85 408 -42 71 -148 177 -220 219 -207 123 -470 119 -671 -10 l-49 -31
-430 430 -431 431 37 58 c123 200 125 458 4 663 -42 71 -148 177 -220 219
-125 74 -305 107 -446 81z m-1489 -820 c195 -65 320 -240 320 -449 0 -268
-205 -473 -473 -473 -268 0 -473 205 -473 473 0 164 75 307 206 393 129 85
274 104 420 56z m1089 -179 c25 -36 59 -78 76 -93 l30 -29 -170 -261 c-93
-144 -173 -269 -178 -277 -7 -12 -43 2 -204 82 l-194 97 15 48 c15 48 23 207
13 272 l-5 34 280 102 c154 56 283 100 286 96 3 -3 26 -35 51 -71z m1342 -569
l428 -428 -39 -66 c-22 -36 -46 -86 -53 -111 -10 -36 -17 -46 -34 -46 -11 0
-125 14 -251 31 l-231 32 -11 81 c-21 156 -76 268 -183 376 -113 112 -248 174
-404 186 -198 16 -422 -79 -533 -225 -21 -27 -42 -50 -48 -50 -5 0 -28 10 -51
22 l-41 22 167 258 c92 142 172 263 176 267 6 6 42 -1 88 -16 186 -59 392 -32
543 70 20 14 40 26 43 26 3 0 198 -193 434 -429z m-1863 -151 c125 -63 178
-94 172 -103 -4 -6 -49 -76 -100 -155 -51 -78 -105 -161 -119 -184 l-26 -41
-127 213 -127 213 63 63 c35 35 63 68 63 74 0 5 5 10 10 10 6 0 91 -41 191
-90z m423 -267 c-25 -82 -29 -189 -10 -283 51 -250 230 -439 473 -498 l73 -17
0 -367 0 -368 -22 0 c-13 0 -61 -13 -108 -29 -47 -16 -86 -28 -86 -28 -19 24
-724 1222 -722 1227 2 3 70 110 153 237 l150 231 56 -29 57 -28 -14 -48z
m2467 67 c191 -35 351 -203 382 -400 48 -312 -231 -591 -543 -543 -151 24
-290 124 -356 257 -176 358 126 759 517 686z m-963 -431 l232 -32 0 -29 c0
-94 51 -247 110 -334 l32 -46 -28 -31 c-40 -43 -685 -719 -753 -789 l-56 -58
-50 36 c-67 49 -158 90 -233 105 l-62 13 0 368 c0 358 1 368 19 368 11 0 56
11 100 25 94 30 211 104 271 173 52 59 114 163 131 220 9 32 17 42 33 42 12 0
126 -14 254 -31z m-1663 -731 c187 -314 341 -575 343 -579 2 -5 -19 -35 -46
-68 -28 -33 -58 -74 -68 -90 -10 -17 -22 -31 -26 -31 -5 0 -138 65 -297 145
l-289 144 14 48 c37 122 24 294 -31 420 -28 63 -98 164 -143 206 l-30 29 112
173 c61 96 113 174 116 174 3 1 158 -256 345 -571z m-894 202 c191 -35 351
-203 382 -400 48 -312 -231 -591 -543 -543 -151 24 -290 124 -356 257 -176
358 126 759 517 686z m1790 -808 c233 -61 390 -300 351 -534 -35 -205 -195
-365 -399 -400 -311 -52 -597 234 -545 544 39 232 242 407 472 407 30 0 85 -8
121 -17z"/>
</g>
</svg>
